<?xml version="1.0" encoding="UTF-8"?><svg id="a" xmlns="http://www.w3.org/2000/svg" viewBox="0 0 256 256"><defs><style>.b{fill:#fff;}</style></defs><path class="b" d="M193.8,144.25c-1.72,1.91-4.2,3.12-6.97,3.12-5.18,0-9.38-4.2-9.38-9.38s4.2-9.38,9.38-9.38c2.77,0,5.26,1.21,6.97,3.12h42.25c-1.92-25.86-23.49-46.25-49.85-46.25-5.15,0-10.12,.78-14.8,2.23-11.38-10.61-27.42-17.23-45.2-17.23-27.42,0-50.7,15.72-59.12,37.58-.91-.05-1.83-.08-2.76-.08-24.51,0-44.38,17.35-44.38,38.75s19.87,38.75,44.38,38.75h122.5v-.02c24.35-.3,44.49-18,48.6-41.23h-41.62Z"/></svg>