<?xml version="1.0" encoding="UTF-8"?><svg id="a" xmlns="http://www.w3.org/2000/svg" viewBox="0 0 512 283.28"><defs><style>.b{fill:#fff;}</style></defs><path class="b" d="M394.89,56.11c-9.38,0-18.51,1.07-27.27,3.12C341.14,23.37,297.8,0,248.85,0,181.06,0,124.05,44.82,107.62,105.57c-3.06-.25-6.18-.39-9.32-.39C44.01,105.17,0,145.05,0,194.23s44.01,89.05,98.29,89.05c1.52,0,3.03-.03,4.52-.08v.08h189.68v-115.05c-3.03-2.28-5-5.91-5-10,0-6.91,5.6-12.5,12.5-12.5s12.5,5.59,12.5,12.5c0,4.09-1.96,7.72-5,10v115.05h35v-115.05c-3.03-2.28-5-5.91-5-10,0-6.91,5.6-12.5,12.5-12.5s12.5,5.59,12.5,12.5c0,4.09-1.96,7.72-5,10v115.05h35v-115.05c-3.03-2.28-5-5.91-5-10,0-6.91,5.6-12.5,12.5-12.5s12.5,5.59,12.5,12.5c0,4.09-1.96,7.72-5,10v114.39c58.75-6.1,104.5-54.33,104.5-112.91,0-62.74-52.43-113.6-117.11-113.6Z"/></svg>